<?xml version="1.0" encoding="UTF-8" standalone="no"?>
<!-- Created with Inkscape (http://www.inkscape.org/) -->

<svg
   width="150mm"
   height="150mm"
   viewBox="0 0 150 150"
   version="1.1"
   id="svg5"
   xmlns="http://www.w3.org/2000/svg"
   xmlns:svg="http://www.w3.org/2000/svg">
  <defs
     id="defs2" />
  <g
     id="layer1">
    <path
       id="path1102"
       style="fill:#eeeeee;stroke:#eeeeee;stroke-width:0"
       d="m 113.52015,28.949101 c -3.21167,-0.241748 -6.2969,0.876299 -9.37972,1.621537 -6.110999,1.477268 -12.230345,3.677237 -17.186108,7.505714 -3.326067,2.569487 -6.803935,4.905092 -10.23728,7.328338 -4.314512,3.045171 -8.795656,5.970483 -13.697764,7.91687 -4.267646,1.694473 -8.648988,2.974454 -13.061512,4.299816 -2.491226,0.748274 -5.004838,1.442037 -7.453096,2.411988 -4.645639,1.840509 -9.121696,4.043033 -13.698439,6.055255 -7.253344,3.189023 -13.908538,7.486987 -20.8111343,11.422814 -2.8496717,1.624869 -4.3641939,4.781735 -7.04933801,6.550311 -1.62034268,1.067242 -0.84250365,3.212541 0.95143521,2.231201 2.6346451,-1.441233 4.7814125,0.964484 7.4647904,1.353402 3.5663297,0.516889 7.2089967,-0.03388 10.7661907,0.376257 3.188506,0.367632 6.519572,1.363701 9.606655,0.50018 3.629512,-1.01525 7.096503,0.68025 10.6777,1.241401 3.253385,0.509785 6.518242,0.409273 9.766911,0.196041 2.57546,-0.169045 5.251019,-0.274488 7.721036,-1.3094 2.049314,-0.858642 3.974396,0.52904 6.40701,0.355145 1.730475,-0.123703 2.168446,-0.107651 4.115569,0.256874 2.206525,0.413088 3.731257,-2.229754 5.870068,-0.446125 1.532319,-0.907045 2.81822,0.891857 3.649735,2.167634 0.930248,1.427261 3.445258,1.776426 3.433209,3.757092 -1.763019,-2.191544 -1.329965,1.006727 -4.384857,0.537587 -2.227857,-0.342132 -3.662573,-0.930883 -6.291173,-1.671869 -2.671367,-0.753042 -5.565933,0.272245 -7.750016,1.694415 -2.680681,1.74553 -5.707716,2.50443 -8.898198,2.375527 -4.29452,0.268908 -8.794729,-0.522496 -12.878241,1.299649 -2.834913,1.264995 -5.916276,0.506986 -8.846587,0.824944 -2.555611,0.277301 -5.033619,-0.647079 -7.614852,-0.84862 -2.841145,-0.221835 -5.206447,1.485801 -8.010092,1.503221 -3.213359,0.02 -6.303555,-0.32264 -9.4297201,0.85188 -2.232481,0.83876 -5.6866481,-0.91109 -7.19387048,0.919 7.48095708,5.25711 16.51516358,7.66849 25.27503958,9.89399 10.134146,2.57464 20.484352,4.14885 30.816792,5.66556 7.827786,1.14905 15.780203,1.12506 23.61175,2.17955 6.634635,0.89333 13.329769,1.05994 20.011776,1.1053 10.100561,0.0686 20.316591,-0.0655 30.228941,-2.21006 4.52685,-0.97941 8.59225,-3.33979 12.12194,-6.30676 5.55607,-4.6703 7.54702,-12.2752 7.76187,-19.283615 0.27545,-8.985217 -1.25937,-17.971002 -3.78225,-26.560096 -2.46775,-8.401413 -5.46855,-16.972427 -11.00673,-23.762479 -2.81574,-3.452222 -5.68189,-6.918271 -9.36301,-9.506332 -3.17725,-2.233809 -7.03641,-5.031139 -10.90109,-4.104246 -0.45217,0.108447 -1.20846,0.252586 -1.33334,-0.388891 z m -2.53895,7.943517 c 6.77752,0.24823 14.07816,4.176846 15.99886,10.98952 1.60992,5.710334 -1.14076,11.764305 -5.51442,15.584548 -5.56596,4.861674 -14.19224,4.939087 -20.36968,0.817214 -5.12376,-3.418808 -7.872637,-10.159198 -6.05998,-16.112867 1.736719,-5.704251 7.26081,-9.220239 12.79457,-10.699478 1.03239,-0.27597 2.08403,-0.49324 3.15065,-0.578937 z m 0.0453,2.189294 c -3.79357,-0.291575 -6.90415,2.257623 -10.1132,4.027496 -3.175357,1.751291 -4.639972,5.426726 -4.624947,8.944445 0.02672,6.256006 5.567187,10.690337 11.372197,12.609951 3.56703,1.179554 8.1304,1.295732 10.8937,-1.162932 2.57111,-2.287663 5.80191,-4.517897 6.6569,-7.991291 1.60243,-6.50985 -2.72673,-13.485799 -9.12596,-15.588821 -1.62942,-0.535487 -3.33926,-0.860245 -5.05869,-0.838848 z m -8.25414,8.661796 c 3.5601,-0.190072 4.63741,5.451187 1.19883,6.635875 -3.41728,1.177349 -5.67132,-3.499181 -3.02491,-5.883421 0.49816,-0.448809 1.14953,-0.742912 1.82608,-0.752454 z M 80.071169,93.607879 c 0.49278,0.177303 0.624158,0.224573 0,0 z" />
  </g>
</svg>
