<?xml version="1.0" encoding="UTF-8" standalone="no"?>
<!-- Created with Inkscape (http://www.inkscape.org/) -->

<svg
   width="150mm"
   height="150mm"
   viewBox="0 0 150 150"
   version="1.1"
   id="svg5"
   xmlns:xlink="http://www.w3.org/1999/xlink"
   xmlns="http://www.w3.org/2000/svg"
   xmlns:svg="http://www.w3.org/2000/svg">
  <defs
     id="defs2">
    <linearGradient
       id="linearGradient2908">
      <stop
         style="stop-color:#eeeeee;stop-opacity:0;"
         offset="0.11146496"
         id="stop2906" />
      <stop
         style="stop-color:#eeeeee;stop-opacity:0.89999998;"
         offset="1"
         id="stop2904" />
    </linearGradient>
    <linearGradient
       xlink:href="#linearGradient2908"
       id="linearGradient2910"
       x1="26.198706"
       y1="68.73748"
       x2="139.61931"
       y2="235.42448"
       gradientUnits="userSpaceOnUse"
       gradientTransform="matrix(0.95462185,0,0,0.91441384,3.8669206,13.016437)" />
  </defs>
  <g
     id="layer1"
     transform="translate(-28.670344,-70.316772)">
    <g
       id="g4707"
       transform="matrix(0.91668504,0,0,0.91668504,27.572957,5.8584399)">
      <path
         style="fill:url(#linearGradient2910);fill-opacity:1;stroke:none;stroke-width:0;stroke-dasharray:none;stroke-opacity:0.996078"
         d="M 28.876777,75.870942 V 228.29184 H 137.15056 V 75.870942 Z"
         id="path1203" />
      <path
         style="fill:#eeeeee;fill-opacity:1;stroke:#eeeeee;stroke-width:0.3;stroke-dasharray:none;stroke-opacity:0.996078"
         id="path3830"
         d="m 28.852722,96.590807 c -4e-5,1.749186 1.09e-4,3.498373 5.29e-4,5.247563 7.94e-4,2.79931 0.0016,5.59862 0.0038,8.39793 0.0019,2.46387 0.0033,4.92775 0.0067,7.39162 0.0021,1.35817 0.0037,2.71635 0.006,4.07452 0.004,2.69144 0.0037,5.38288 0.0044,8.07432 7.94e-4,3.40428 0.0011,6.80857 0.0013,10.21285 2.17e-4,1.64738 2.65e-4,3.29476 5.3e-4,4.94214 2.64e-4,1.50217 5.29e-4,3.00434 7.93e-4,4.50651 2.65e-4,1.7348 5.29e-4,3.46961 7.94e-4,5.20442 2.46e-4,1.77485 5.29e-4,3.54971 7.94e-4,5.32457 1.59e-4,1.52587 5.29e-4,3.05173 0.0011,4.5776 5.29e-4,2.06401 0.0011,4.12803 0.0013,6.19204 1.75e-4,2.11113 1.06e-4,4.22226 2.22e-4,6.33338 8.2e-5,2.13783 5.29e-4,4.27565 0.0011,6.41348 7.93e-4,2.58273 0.0016,5.16546 0.0021,7.74819 2.65e-4,1.80654 0.0013,3.61308 0.0021,5.41962 7.94e-4,1.78213 0.0016,3.56426 0.0024,5.34639 0.0011,2.15423 0.0021,4.30846 0.0028,6.46269 7.94e-4,2.05008 5.29e-4,4.10017 8e-5,6.15026 -7.94e-4,1.76065 -0.0016,3.52129 -0.0026,5.28194 -5.29e-4,1.1527 -0.0019,2.3054 -0.003,3.4581 -0.0011,1.16865 -0.0016,2.33731 -0.0021,3.50597 -0.08638,2.51608 0.798922,7.00621 3.806523,6.94228 1.279348,-0.0765 2.559032,-0.12246 3.84053,-0.14888 0.952529,-0.0169 1.905217,-0.006 2.857813,-0.003 1.366022,0.003 2.73205,0.002 4.098075,0.001 2.600645,-8e-4 5.20129,-0.001 7.801936,-0.002 2.861566,-5.3e-4 5.723133,-0.001 8.584699,-0.002 1.322652,-2.6e-4 2.645307,-10e-4 3.967959,-0.002 1.907654,-7.9e-4 3.81531,-0.001 5.722967,-0.002 1.481669,-2.6e-4 2.963338,-7.9e-4 4.445008,-0.001 2.654628,-5.3e-4 5.309258,-8e-4 7.963889,-0.001 2.406243,-2.7e-4 4.812488,-8e-4 7.21873,-10e-4 2.087878,-2.7e-4 4.175755,-7.9e-4 6.263635,-0.001 1.340765,-1e-4 2.681531,-0.001 4.022296,-0.002 2.179416,-0.001 4.358826,-0.001 6.538226,-0.002 2.24305,-5.3e-4 4.4861,-10e-4 6.72914,-0.002 1.28102,-2.5e-4 2.56203,-7.9e-4 3.84305,-0.001 1.77836,-5.3e-4 3.55672,-0.001 5.33508,-0.002 1.61409,-7.9e-4 3.22818,-0.002 4.84227,-0.003 2.60563,-0.001 5.21125,-0.002 7.81688,-0.002 1.39631,-0.17435 2.62874,-0.24956 2.62441,-1.91897 -0.21765,-1.22598 -0.28593,-2.4656 -0.31304,-3.70817 -0.0115,-1.70738 0.008,-3.41478 0.0143,-5.12215 0.006,-2.17941 0.005,-4.35882 0.005,-6.53823 1e-5,-1.27236 5.3e-4,-2.54472 7.9e-4,-3.81708 5.3e-4,-1.75784 2.7e-4,-3.51569 2.3e-4,-5.27354 -8e-5,-1.59051 -5.3e-4,-3.18102 -0.001,-4.77154 -5.3e-4,-1.83963 -7.9e-4,-3.67926 -0.001,-5.51889 -5.3e-4,-2.30702 -8e-4,-4.61405 -0.001,-6.92106 -2.7e-4,-2.55352 -8e-4,-5.10704 -0.001,-7.66056 -2.7e-4,-1.54494 -5.3e-4,-3.08987 -5.3e-4,-4.63481 -1.4e-4,-1.60988 -2.7e-4,-3.21976 -5.3e-4,-4.82963 -1.9e-4,-2.08193 -2.7e-4,-4.16385 -5.3e-4,-6.24577 -7e-5,-1.09158 -2.6e-4,-2.18317 -5.3e-4,-3.27476 -2e-4,-1.63715 -5.3e-4,-3.27429 -0.001,-4.91144 -5.3e-4,-1.23914 -0.002,-2.47827 -0.002,-3.71741 -10e-4,-1.42371 -0.002,-2.84741 -0.003,-4.27112 -7.9e-4,-1.63557 -0.001,-3.27113 -0.002,-4.90669 -2.7e-4,-1.66078 -2.7e-4,-3.32156 -5.3e-4,-4.98235 -9e-5,-1.78486 -2.7e-4,-3.56972 -2.7e-4,-5.35458 -8e-5,-1.81106 4e-5,-3.62212 1.8e-4,-5.43318 1.9e-4,-1.91873 2.7e-4,-3.83747 2.7e-4,-5.75621 1.1e-4,-2.21954 2.5e-4,-4.43907 2.6e-4,-6.6586 9e-5,-2.35169 -8e-5,-4.70337 -5.3e-4,-7.05505 -2.6e-4,-1.73889 -7.9e-4,-3.47777 -0.001,-5.21665 -2.4e-4,-1.38266 -5.3e-4,-2.76532 -0.001,-4.14798 -5.3e-4,-1.446387 -7.9e-4,-2.892771 -10e-4,-4.339158 -1.5e-4,-1.276208 -2.6e-4,-2.552417 -5.2e-4,-3.828624 -1.4e-4,-1.035508 -2.4e-4,-2.071019 -5.3e-4,-3.106526 -2.1e-4,-0.907098 -5.3e-4,-1.814198 -10e-4,-2.721295 -5.3e-4,-0.854004 -0.001,-1.70801 -0.002,-2.562014 -7.9e-4,-0.759452 -0.002,-1.518904 -0.002,-2.278356 -7.9e-4,-0.89631 -0.002,-1.792621 -0.002,-2.688931 -5.3e-4,-0.821976 -0.001,-1.643949 -0.002,-2.465922 0.019,-2.469674 -1.59194,-3.710474 -3.27754,-6.207802 -0.12861,-0.190558 -1.50321,-0.29014 -1.74548,-0.307909 -0.99865,-0.01786 -1.99527,0.06237 -2.99322,0.08878 -0.73,0.01511 -1.46017,0.0065 -2.19024,0.0032 -0.94709,-0.0038 -1.89419,-0.004 -2.84128,-0.0047 -1.36283,-7.94e-4 -2.72567,-0.0016 -4.0885,-0.0027 -1.10777,-7.94e-4 -2.21554,-0.0024 -3.32331,-0.0039 -0.81353,-0.0013 -1.62705,-0.0026 -2.44057,-0.0035 -0.86313,-0.0011 -1.72625,-0.0016 -2.58938,-0.0021 -0.89976,-2.64e-4 -1.79952,-5.29e-4 -2.69928,-7.94e-4 -1.15112,-5.29e-4 -2.30225,-0.0013 -3.45338,-0.0019 -1.4429,-0.0011 -2.8858,-0.0021 -4.32871,-0.0031 -1.301768,-0.0013 -2.603539,-0.0026 -3.905313,-0.0036 -1.531133,-0.0011 -3.062266,-0.0019 -4.593397,-0.0039 -0.806399,-7.94e-4 -1.612796,-0.0021 -2.419193,-0.0037 -1.092412,-0.0019 -2.184826,-0.0019 -3.277238,-0.0019 -1.680871,-2.64e-4 -3.361743,-2.64e-4 -5.042614,-2.54e-4 -0.927436,1.3e-4 -1.854875,-9.2e-5 -2.782311,-2.22e-4 -1.40775,-1.61e-4 -2.8155,-5.29e-4 -4.22325,-0.0013 -0.854678,-5.29e-4 -1.709357,-0.0011 -2.564035,-0.0019 -1.48953,-7.94e-4 -2.97906,-0.0013 -4.468587,-0.0024 -1.390163,-7.94e-4 -2.780327,-0.0013 -4.17049,-0.0019 -1.251283,-5.3e-4 -2.502569,-7.94e-4 -3.753852,-0.0016 -2.453654,-7.94e-4 -4.90731,-0.0013 -7.360965,-0.0021 -1.801919,-2.64e-4 -3.603837,-0.0011 -5.405758,-0.0024 -1.12889,-7.94e-4 -2.257779,-0.0011 -3.386669,-0.0019 -0.418129,-2.64e-4 -0.836255,-0.0011 -1.254382,-0.0016 0,0 2.723198,5.346419 2.723198,5.346419 v 0 c 0.418248,5.29e-4 0.836496,0.0011 1.254744,0.0013 1.1289,7.94e-4 2.2578,0.0011 3.386701,0.0019 1.801984,0.0011 3.603969,0.0019 5.405953,0.0021 2.45363,7.94e-4 4.907259,0.0013 7.360888,0.0021 1.251292,5.3e-4 2.502586,7.94e-4 3.753877,0.0013 1.390115,5.3e-4 2.780234,0.0011 4.170349,0.0021 1.489496,0.0011 2.978994,0.0013 4.46849,0.0024 0.854734,7.94e-4 1.709467,0.0013 2.564201,0.0019 1.407819,7.94e-4 2.815635,0.0011 4.223454,0.0013 0.92747,1.33e-4 1.854941,2.65e-4 2.782411,1.7e-4 1.680824,-6.9e-5 3.361648,1e-5 5.042471,2.64e-4 1.092129,2.65e-4 2.184258,2.65e-4 3.276383,0.0024 0.806509,0.0016 1.613017,0.0024 2.419525,0.0035 1.531213,0.0019 3.062425,0.0027 4.593638,0.0038 1.301771,0.0011 2.603541,0.0024 3.905321,0.0036 1.44292,0.0011 2.88585,0.0021 4.32878,0.0031 1.15117,7.93e-4 2.30233,0.0013 3.4535,0.0019 0.89973,2.64e-4 1.79948,5.29e-4 2.69922,0.0011 0.86301,5.29e-4 1.72602,0.0013 2.58903,0.0021 0.81347,0.0011 1.62694,0.0024 2.44041,0.0036 1.10788,0.0016 2.21575,0.0029 3.32362,0.0038 1.36287,0.0011 2.72574,0.0019 4.0886,0.0027 0.94641,7.94e-4 1.89281,0.0013 2.83921,0.0057 0.7362,0.0034 1.47255,0.009 2.20857,-0.01257 0.97266,-0.03211 1.94702,-0.115718 2.91986,-0.05175 0.33621,0.04921 0.69422,0.07126 1.00457,0.23232 0.12393,0.06432 0.39159,0.385561 0.32703,0.261752 -0.85597,-1.641525 -1.82403,-3.222228 -2.71653,-4.844182 -0.0589,-0.106981 0.17543,0.181306 0.2144,0.297027 0.0362,0.107389 7e-5,0.226629 1e-4,0.339942 2.7e-4,0.821994 8e-4,1.643991 0.001,2.465985 5.3e-4,0.896345 0.001,1.79269 0.002,2.689035 8e-4,0.759444 0.002,1.518888 0.002,2.278329 8e-4,0.853975 0.001,1.707949 0.002,2.561924 5.3e-4,0.90705 0.001,1.814099 0.001,2.721149 2.7e-4,1.035492 2.7e-4,2.070987 5.3e-4,3.106478 1.6e-4,1.27621 2.7e-4,2.55242 5.3e-4,3.82863 1.7e-4,1.446413 5.3e-4,2.892827 0.001,4.33924 5.3e-4,1.382641 0.001,2.765282 0.001,4.147925 2.7e-4,1.73888 8e-4,3.47777 10e-4,5.21665 5.3e-4,2.35166 7.9e-4,4.70331 5.3e-4,7.05497 -5e-5,2.21953 -1.9e-4,4.43906 -2.7e-4,6.65859 -9e-5,1.91874 -1.6e-4,3.83747 -2.6e-4,5.75621 -1.7e-4,1.81107 -2.7e-4,3.62214 -2.5e-4,5.43322 7e-5,1.78486 2.6e-4,3.56972 2.6e-4,5.35458 1e-4,1.6608 1.6e-4,3.3216 2.7e-4,4.98239 2.5e-4,1.6356 7.9e-4,3.2712 0.002,4.9068 5.3e-4,1.42374 0.002,2.84747 0.003,4.27121 7.9e-4,1.23909 0.002,2.47819 0.003,3.71729 8e-4,1.63712 0.001,3.27423 0.001,4.91135 1.2e-4,1.09158 2.6e-4,2.18316 5.3e-4,3.27474 1.7e-4,2.08192 2.5e-4,4.16385 5.2e-4,6.24577 1.4e-4,1.60988 2.7e-4,3.21975 5.3e-4,4.82963 1.4e-4,1.54495 2.7e-4,3.0899 5.3e-4,4.63485 5.3e-4,2.55351 0.001,5.10703 0.001,7.66054 2.7e-4,2.30702 7.9e-4,4.61405 0.001,6.92107 2.7e-4,1.83965 8e-4,3.6793 0.001,5.51895 5.3e-4,1.59049 0.001,3.18097 0.001,4.77146 1.8e-4,1.7578 2.6e-4,3.51561 -7e-5,5.27342 -2.4e-4,1.27238 -8e-4,2.54475 -0.001,3.81713 -1.8e-4,2.17903 5.3e-4,4.35805 -0.003,6.53707 -0.005,1.70946 -0.0214,3.41885 -0.0228,5.12831 0.008,1.2488 0.009,2.51555 0.26645,3.74247 0.0426,0.17932 0.28127,0.74103 0.1282,0.9312 -0.3919,0.48688 -1.41092,0.31027 -1.89653,0.45662 -2.60568,5.3e-4 -5.21136,7.9e-4 -7.81704,0.002 -1.61408,7.9e-4 -3.22816,0.002 -4.84223,0.003 -1.77835,7.9e-4 -3.55668,0.001 -5.33503,0.002 -1.28099,5.3e-4 -2.56198,7.9e-4 -3.84298,0.001 -2.24305,5.3e-4 -4.48609,10e-4 -6.72914,0.002 -2.17947,5.3e-4 -4.358943,7.9e-4 -6.538414,0.002 -1.340707,7.9e-4 -2.681415,0.002 -4.022122,0.002 -2.087869,5.3e-4 -4.175736,7.9e-4 -6.263605,10e-4 -2.406237,5.3e-4 -4.812475,8e-4 -7.218712,0.001 -2.654649,2.7e-4 -5.309298,8e-4 -7.963945,0.001 -1.481667,2.7e-4 -2.963331,7.9e-4 -4.444995,0.001 -1.907704,5.3e-4 -3.815408,7.9e-4 -5.723112,0.002 -1.322612,7.9e-4 -2.645227,0.002 -3.967839,0.002 -2.861559,7.9e-4 -5.723118,0.001 -8.584679,0.002 -2.600664,5.3e-4 -5.201327,0.001 -7.801994,0.002 -1.365358,5.3e-4 -2.730724,0.002 -4.09608,-0.002 -0.957091,-0.004 -1.914306,-0.0109 -2.871272,0.0104 -1.251646,0.0287 -2.503355,0.11675 -3.753958,0.10541 -1.948315,-0.9546 -0.22157,-0.16097 2.642187,4.86299 0.04246,0.0745 -0.112617,-0.13131 -0.15218,-0.20738 -0.226545,-0.4356 -0.09211,-0.88969 -0.120997,-1.3601 5.29e-4,-1.16858 0.0011,-2.33717 0.0019,-3.50576 0.0011,-1.15275 0.0028,-2.3055 0.0032,-3.45825 0.0011,-1.76067 0.0019,-3.52135 0.0027,-5.28202 7.93e-4,-2.05017 7.93e-4,-4.10033 2.4e-4,-6.1505 -7.93e-4,-2.15424 -0.0019,-4.30848 -0.0028,-6.46273 -7.93e-4,-1.78213 -0.0016,-3.56427 -0.0024,-5.3464 -0.0011,-1.80651 -0.0019,-3.61303 -0.0024,-5.41954 -7.94e-4,-2.58273 -0.0013,-5.16546 -0.0021,-7.74818 -5.29e-4,-2.13781 -0.0011,-4.27561 -0.0013,-6.41341 -1.45e-4,-2.11114 -9.5e-5,-4.22227 -1.98e-4,-6.3334 -2.09e-4,-2.06405 -5.29e-4,-4.1281 -0.0011,-6.19214 -5.29e-4,-1.52584 -0.0011,-3.05167 -0.0011,-4.57751 -2.46e-4,-1.77486 -5.29e-4,-3.54972 -7.94e-4,-5.32457 -2.35e-4,-1.73481 -5.29e-4,-3.46962 -7.93e-4,-5.20443 -2.36e-4,-1.50217 -5.3e-4,-3.00434 -7.94e-4,-4.50651 -2.65e-4,-1.64738 -5.29e-4,-3.29475 -5.29e-4,-4.94212 -2.65e-4,-3.4043 -7.94e-4,-6.80859 -0.0013,-10.21289 -5.29e-4,-2.69162 -5.29e-4,-5.38324 -0.0036,-8.07486 -0.0024,-1.35815 -0.0041,-2.71629 -0.0061,-4.07444 -0.004,-2.46378 -0.0051,-4.92757 -0.0071,-7.39135 -0.0024,-2.79925 -0.0032,-5.59849 -0.004,-8.39774 -5.29e-4,-1.74916 -5.29e-4,-3.49832 -5.29e-4,-5.24749 0,0 -3.526713,-4.854101 -3.526713,-4.854101 z" />
    </g>
  </g>
</svg>
