<?xml version="1.0" encoding="UTF-8" standalone="no"?>
<!-- Created with Inkscape (http://www.inkscape.org/) -->

<svg
   width="150mm"
   height="150mm"
   viewBox="0 0 150 150"
   version="1.1"
   id="svg5"
   xmlns="http://www.w3.org/2000/svg"
   xmlns:svg="http://www.w3.org/2000/svg">
  <defs
     id="defs2" />
  <g
     id="layer1"
     transform="translate(-21.325745,-35.090929)">
    <path
       style="fill:#eeeeee;stroke-width:0.264583"
       id="path76"
       d="m 23.420808,134.33756 c 0.741496,1.65478 -0.780211,-1.74154 -0.105538,0.40014 0.102193,0.3244 1.097429,2.26239 1.230403,2.57544 0.327035,0.76989 -0.118196,0.23409 0.135755,1.03108 0.165016,0.51788 0.395264,1.23828 0.526826,1.76566 0.254556,0.9492 0.554118,1.87358 0.920633,2.81873 0.366516,0.94515 0.951291,2.16257 1.263699,3.09353 0.406829,1.21231 0.124184,2.31156 0.666789,3.48095 0.292169,0.62966 1.250137,2.18632 1.57958,2.7973 0.382997,0.65294 0.705497,0.53232 1.132511,1.15736 0.835828,1.22343 2.12178,2.54139 3.152295,3.60962 1.030515,1.06823 2.003346,1.93983 3.079142,2.94462 1.365279,1.27517 2.49275,2.07701 3.361932,2.87229 0.869182,0.79527 1.0824,1.34922 2.557101,2.63233 1.109934,0.85277 1.770774,1.17075 2.806047,1.95365 0.724454,0.34044 2.506317,2.25578 3.76958,3.16143 1.100621,0.78904 2.092132,1.12321 3.249168,1.76159 0.932296,0.51438 1.942996,1.10905 2.899917,1.54391 0.95692,0.43486 1.892288,0.71092 2.873503,1.12442 1.374707,0.57931 3.648994,2.33574 5.191527,2.89608 2.146662,1.66896 1.150966,-0.64093 2.371561,-0.45826 1.532956,0.22941 4.588416,1.82773 6.191267,2.21681 1.330041,0.32285 2.66063,0.56427 3.981332,0.79037 1.320701,0.22609 3.652633,1.15464 4.995856,1.4173 1.594301,0.1937 3.159262,-0.0779 4.708086,0.0405 1.551114,-0.30981 2.904647,-0.0117 4.425041,0.0423 1.380509,-0.16382 2.697493,-0.24209 4.247632,-0.25446 1.178545,-0.33579 2.876041,-0.0651 4.501947,-0.14296 1.21439,-0.0888 2.89125,-1.28097 4.49776,-1.43981 1.27536,-1.24775 2.92813,-0.30749 4.51486,-0.3917 1.35086,-0.16833 3.0971,-0.15661 4.66106,-0.33198 1.58562,-0.17779 3.12318,-1.29818 4.59084,-1.79808 1.71957,-0.5857 3.5422,-0.91686 4.85317,-1.39185 1.5849,-0.26851 2.50825,-0.7565 3.50999,-1.19451 1.27523,-0.35241 2.31461,-0.79488 3.29964,-1.34502 1.28851,-0.39791 3.02862,-0.54109 4.1381,-1.29891 1.11196,-0.75951 0.80804,-2.7006 2.42036,-3.63691 1.40669,-1.16828 2.7897,-1.92678 3.9236,-2.79666 1.28105,-0.65842 0.69157,-2.9839 1.6554,-3.75603 -0.40477,-2.1806 2.30455,-1.42454 3.56648,-2.13535 1.06891,-0.4915 3.04235,-0.4856 4.10881,-1.29002 1.14612,-0.86451 1.01371,-2.85827 2.13622,-4.25729 0.71752,-0.89428 1.50357,-1.40691 2.21872,-2.31045 0.80475,-0.55671 1.39471,-2.15812 2.08331,-3.22376 0.63655,-0.98509 1.24211,-1.85732 1.83013,-2.78875 0.62012,-0.98232 0.68723,-3.03362 1.30603,-4.01933 0.0183,-1.99808 1.05884,-1.65547 1.73455,-2.35065 0.7633,-0.78528 1.50234,-1.713 2.02229,-2.83032 0.6718,-1.44364 0.74599,-3.45102 1.2536,-4.74655 -0.0448,-1.82728 -0.0641,-3.02745 0.33948,-4.08833 -0.50354,-1.9381 0.69752,-2.32321 1.22862,-3.37286 0.30987,-1.22997 1.25965,-2.15258 1.87046,-3.39025 0.58503,-1.18546 2.2875,-2.47137 2.66177,-4.05417 0.0966,-1.52597 0.40972,-2.74824 0.43197,-4.13397 0.2792,-1.23662 -1.46361,-4.09379 -1.53828,-5.49372 -1.50647,-2.21104 -0.0416,-1.95113 0.005,-2.81804 0.0654,-1.41224 0.34515,-2.544 0.41249,-3.89399 0.0645,-1.293445 -0.0943,-2.761481 -0.30041,-4.424937 -0.14117,-1.139135 0.62156,-1.433116 0.41287,-2.556609 0.70451,-0.435375 -0.79969,-2.776253 -1.36723,-4.266543 -0.43537,-1.14322 -0.0837,-1.900272 -0.35026,-2.860524 -0.29707,-1.070016 -0.71748,-2.204432 -1.16885,-3.323621 -0.47132,-1.136943 -1.01976,-2.754443 -1.52027,-3.842986 -0.50461,-1.097438 -0.71185,-1.232147 -1.18086,-2.243716 -0.64359,-1.388118 -1.16126,-2.561639 -1.84396,-3.760488 -0.56334,-1.139622 -1.10497,-2.296924 -1.87758,-3.427268 -0.43523,-1.025643 -1.622,-1.848011 -2.51972,-2.967598 -0.84459,-0.66006 -1.54256,-1.133763 -2.45239,-2.333919 -0.86809,-1.145108 -2.40753,-3.956496 -3.28242,-5.081978 -1.25848,-1.06682 -2.3843,-1.954661 -3.4569,-2.872162 -1.07707,-0.838282 -2.18184,-1.900087 -3.19806,-2.734602 -1.04382,-0.896096 -1.58535,-0.907082 -2.58825,-1.64213 -0.76633,-0.169872 -1.78701,-0.944158 -3.17765,-1.919741 -1.20603,-0.846081 -3.4104,-2.726529 -4.78431,-3.46266 -1.07067,-0.573657 -2.18307,-1.13415 -3.24572,-1.604796 -1.10606,-0.516129 -1.57252,-0.06967 -2.63534,-0.468302 -1.08408,-0.406605 -2.72684,-1.955656 -3.8829,-2.36589 -1.14614,-0.406711 -3.80055,-2.41006 -5.10832,-2.779933 -2.23788,-1.846683 -1.50045,-0.401543 -2.31055,-0.549413 -1.37752,-0.259971 -2.99051,-0.178535 -4.49209,-0.269953 -1.37199,0.160906 -3.11724,-0.447906 -4.52729,-0.56075 -1.31119,-0.104932 -2.61712,-0.282641 -3.89855,-0.400425 -1.60545,-0.147567 -3.13364,0.211944 -4.676948,0.302337 -1.543307,0.09039 -3.185712,-0.414504 -4.797783,-0.436275 -1.454965,0.186998 -2.928528,0.117699 -4.358105,0.325672 -1.468303,-0.05382 -2.878727,0.414167 -4.293859,0.700446 -1.430993,0.237236 -2.631478,0.806875 -4.030026,1.158598 -1.401687,0.352512 -2.25795,1.020045 -3.680011,1.394752 -1.190654,0.313732 -2.714581,-0.09531 -4.057868,0.189434 -1.343286,0.284749 -3.446819,0.590106 -4.597284,1.028874 -1.023568,0.390372 -2.088196,1.564353 -3.282817,2.249566 -1.078353,1.246457 -3.025772,0.04139 -4.206253,0.625423 -1.232627,0.609828 -1.811918,2.242122 -2.818088,2.807323 -0.736588,0.413766 -1.453651,0.897411 -2.154809,1.405945 -0.701158,0.508535 -0.691066,1.557858 -1.404804,2.009903 -2.162767,1.555203 -3.25875,1.608533 -4.03152,1.94422 -0.772769,0.335686 -0.408848,1.767205 -2.31758,3.435598 -0.930563,0.813387 -2.841422,0.712711 -3.723214,1.578732 -0.616805,0.605775 -1.990588,0.733025 -2.80629,1.738437 -0.815703,1.005413 -1.327934,2.711009 -1.844499,3.423304 -0.603219,0.831779 0.165868,3.180924 -0.391442,4.044135 -0.803829,1.40462 -1.079682,3.395646 -1.958806,4.650602 -0.266885,1.941644 -1.845086,2.456838 -2.803176,3.545145 -0.987595,1.121822 -1.584658,2.703185 -2.224509,4.215157 -0.651886,1.427952 -1.192317,2.915963 -1.692745,4.322015 -0.482525,1.475818 -0.929376,2.822859 -1.366245,4.216489 -0.444212,1.417051 -0.322869,2.891494 -0.788143,4.391837 -0.06643,0.603668 -0.590898,1.810686 -0.685315,2.410613 -0.319929,2.032839 0.313854,0.6933 0.08428,2.648462 -0.05377,0.457925 0.797346,0.940088 0.760176,1.39966 -0.203925,2.52182 -1.632631,-0.04965 -1.735668,2.53833 -0.09917,1.37096 0.242956,2.71146 0.277498,4.00895 0.03454,1.29748 -0.309511,2.53648 -0.305746,3.90859 l -0.156392,0.90117 c 0.180933,1.29194 1.906148,2.3178 3.146671,2.32374 1.240522,0.006 2.052169,-0.79992 2.032369,-1.98809 l -0.05582,-0.20813 c 0.01215,-0.36607 -0.357546,-1.02682 -0.345396,-1.39288 0.05006,-0.41955 0.282169,-0.73778 0.296166,-1.16007 0.0079,-0.23862 0.07026,-2.41385 0.06882,-2.63571 -0.0029,-0.4523 -0.319637,-1.46055 -0.321027,-1.91287 -0.01095,-3.55527 0.260933,1.44166 0.392677,-1.94309 0.03934,-1.08479 0.103654,-2.23951 0.371168,-3.301731 0.100478,-0.398962 0.06932,-0.890536 0.174593,-1.288258 0.651247,-2.460481 0.491133,-1.726635 0.315333,-1.15697 -0.1758,0.569665 -0.05234,1.115774 0.846706,-1.652067 0.215741,-0.605147 0.529257,-0.753112 0.723335,-1.365551 0.871471,-2.750066 0.597036,-2.503282 0.346579,-2.277774 -0.250456,0.225508 0.656764,2.009482 1.595587,-0.87232 0.239628,-0.735563 -0.437514,-2.986005 -0.203842,-3.72348 0.925175,-2.919869 0.722948,-2.848402 0.555082,-2.535541 -0.167865,0.312862 -0.308083,0.801995 0.695944,-2.035106 1.29957,-3.920588 -0.07779,-0.430319 1.672222,-3.979746 0.300082,-0.608653 0.625021,-1.058922 0.927582,-1.666345 0.513312,-1.030516 0.935229,-2.244394 1.557444,-3.24431 0.622215,-0.999917 0.999598,-2.135787 1.629284,-3.09415 0.318958,-0.466984 0.733004,-1.451116 1.477454,-2.273915 0.74445,-0.822799 1.992154,-1.367076 2.35831,-1.774665 0.643446,-0.716257 1.223106,-1.444899 1.935859,-2.092224 0.767149,-0.69673 0.86892,-1.912363 1.695277,-2.53773 1.120914,-0.848281 2.140537,-1.407884 3.282728,-1.814717 1.142191,-0.406833 3.228728,0.483148 4.496165,-0.154441 1.335448,-0.668297 1.504203,-3.014569 2.871453,-3.615123 1.090813,-0.47913 2.847791,-0.53727 4.043078,-0.891632 1.710066,0.0093 1.347445,-1.494655 2.34517,-1.8568 1.135858,-0.412282 3.283484,0.554988 4.50055,0.214952 1.323671,-0.369819 2.774401,-0.683523 4.264587,-1.139138 1.500118,-0.318137 3.009665,-0.964004 4.513889,-1.380873 1.49376,-0.413968 3.316262,-0.703998 4.665886,-0.850038 1.279858,-0.138491 2.454392,-0.318738 3.657309,-0.366849 1.202917,-0.04811 2.613019,0.23449 3.898988,0.175322 1.799175,0.107663 3.328587,0.180099 4.65156,0.232945 1.356625,0.06714 1.856995,-0.457851 3.000595,-0.373112 0.65372,-0.463233 2.68027,0.440334 4.2909,0.83502 1.3718,0.336163 2.58242,0.611098 4.23572,1.010563 1.20083,0.290141 2.68387,0.829189 4.21705,1.298003 1.56793,0.602838 3.38986,1.539791 4.98664,2.082361 1.82735,1.091548 2.90781,0.828846 4.27626,1.251631 1.49805,0.462826 2.72201,0.592602 3.88475,1.174011 1.49566,0.747878 2.1335,1.378294 3.40409,2.175908 0.69114,0.741971 2.56304,1.751248 3.97329,2.727687 0.97017,0.776222 2.87072,2.313705 4.16652,3.228681 1.27602,0.901012 2.43356,1.313582 3.67945,2.241507 0.89597,1.035182 1.94389,2.327862 2.8078,3.32381 0.86391,0.995947 2.40936,2.289888 3.19259,3.412796 0.72803,1.043776 1.3758,1.927066 1.99702,3.102902 0.62619,0.997567 1.1367,2.469175 1.67821,3.821057 0.40873,1.225763 1.56276,2.808926 1.99557,4.172768 0.96443,1.423043 1.14955,3.22356 1.39501,4.469283 0.68775,1.937316 1.05095,3.837887 1.11027,4.874769 0.0726,1.269623 0.273,1.978962 0.45119,3.373605 0.19816,1.550988 0.64713,3.506475 0.61333,4.853105 0.3627,1.76009 0.36614,2.38784 0.17816,3.47684 0.31256,1.35169 -0.86396,2.47342 -1.25956,3.82086 -0.37216,1.2676 0.30045,3.16015 0.20597,4.72977 -0.40774,1.85529 -1.51553,3.08137 -1.8826,4.41897 -1.11626,1.07494 -0.69812,2.54783 -1.00809,3.76123 -0.33383,1.1451 -0.16381,2.66512 -0.58689,3.98319 -0.42709,1.33058 -0.70365,3.40308 -1.46668,5.14632 -0.59621,1.36212 -1.7753,2.38242 -2.63829,3.47604 -0.86299,1.09363 -1.26339,2.34968 -2.04832,3.61251 -0.78458,1.26228 -1.68766,2.4262 -2.56825,3.61767 -0.94788,1.13124 -1.81995,2.3364 -2.77767,3.46917 -0.97233,1.11411 -1.85638,2.30576 -2.87435,3.38466 -0.93065,1.15258 -1.95347,2.28038 -3.03743,3.3037 -0.95422,1.16954 -2.56249,1.75922 -3.71172,2.69848 -1.14852,0.9387 -1.87204,2.07759 -3.0005,3.02499 -1.59103,1.01746 -2.94031,1.84241 -4.13624,2.61776 -1.22528,0.72832 -2.18647,1.69004 -3.27862,2.32898 -1.01269,0.86895 -2.04835,1.86924 -3.3542,2.40549 -1.31178,0.53867 -3.37841,0.13178 -5.17078,0.7765 -1.33915,0.4817 -2.46095,1.20539 -3.73759,1.63046 -1.27665,0.42508 -2.31341,0.99405 -3.70502,1.29205 -1.6477,0.35285 -2.79658,0.84748 -4.44279,1.05048 -1.28305,0.44156 -2.848463,1.09346 -4.683803,1.13993 -1.083753,0.79841 -3.877334,-0.56369 -5.858274,-0.77526 -1.707347,-0.65093 -3.683009,-0.53448 -5.262828,-0.6456 -1.718514,-0.12088 -3.160053,-0.40297 -4.760374,-0.5791 -2.039972,-0.14652 -3.636201,-0.20531 -5.022143,-0.2429 -1.417858,-0.0618 -2.127352,0.43292 -3.464137,0.28155 -1.350524,-0.15293 -2.967068,-0.54826 -4.923655,-1.06304 -0.963517,-0.2535 -2.223396,-0.91976 -3.245485,-1.34559 -1.022089,-0.42583 -1.410331,-0.1998 -2.341147,-0.55505 -1.247738,-0.47622 -2.514123,-1.01818 -3.765237,-1.60448 -1.259007,-0.58914 -3.325901,-2.15496 -4.549988,-2.82236 -1.844613,-1.48764 -2.511823,-1.18031 -3.323353,-1.58403 -1.161255,-0.57771 -1.569292,-0.88526 -2.867674,-1.77467 -3.882576,-2.58434 -4.004754,-2.63772 -3.953787,-2.62057 0.05097,0.0171 0.23278,0.0947 -3.157171,-2.26904 -1.174814,-0.81919 -2.256371,-1.47009 -3.372648,-2.34461 -1.116278,-0.87452 -2.152163,-1.94389 -2.918373,-3.20271 -0.524457,-1.19343 -0.861808,-2.10537 -1.321285,-3.33464 -0.341014,-0.96992 -0.782494,-2.3734 -1.303667,-3.72947 -0.48083,-1.25109 -0.539271,-2.18409 -1.058832,-3.32398 -1.396863,-3.36612 -1.046705,-1.19045 -2.408814,-4.02286 -0.180575,-0.37549 0.05551,-0.3087 -0.137514,-0.67794 -0.143034,-0.2736 -0.23137,-0.43312 -0.380061,-0.7037 -0.154371,-0.2809 -0.535758,-0.81849 -0.702934,-1.09197 -0.1298,-0.21233 -0.112986,-0.22978 -0.272431,-0.42087 -0.529759,-0.92708 -1.644496,-0.71067 -2.576386,-0.17281 -0.93189,0.53787 -2.332298,1.29891 -1.802539,2.22598 z" />
  </g>
</svg>
