<?xml version="1.0" encoding="UTF-8" standalone="no"?>
<svg
   width="150"
   height="150"
   stroke-width="1.5"
   viewBox="0 0 150 150"
   fill="none"
   version="1.1"
   id="svg10"
   xmlns="http://www.w3.org/2000/svg"
   xmlns:svg="http://www.w3.org/2000/svg">
  <defs
     id="defs14" />
  <g
     id="g2677"
     style="stroke:#eeeeee;stroke-opacity:1"
     transform="matrix(7.3654892,0,0,7.3654892,-11.778961,-14.146726)">
    <path
       d="m 18,7.5 0.9187,0.15312 c 1.131,0.1885 1.8723,1.28734 1.6236,2.40668 l -0.528,2.3759 C 20.0048,12.4784 20,12.5223 20,12.5661 c 0,2.6243 0,4.9339 0,4.9339 0,0 0,0 0,0 0,2 -1.6,4 -4,4 -1.8741,0 -4.9881,0 -6.58021,0 -0.58385,0 -1.13847,-0.2551 -1.51843,-0.6984 L 3.35288,15.495 C 2.85811,14.9178 2.84375,14.0703 3.31868,13.4767 v 0 C 3.93438,12.707 5.09624,12.6814 5.74526,13.4231 L 8,16 v -3.5"
       stroke="currentColor"
       stroke-linecap="round"
       stroke-linejoin="round"
       id="path2"
       style="stroke:#eeeeee;stroke-opacity:1" />
    <path
       d="M 9,5 8.20966,5.13172 C 7.03189,5.32802 6.28739,6.50588 6.61542,7.65395 L 8,12.5"
       stroke="currentColor"
       stroke-linecap="round"
       stroke-linejoin="round"
       id="path4"
       style="stroke:#eeeeee;stroke-opacity:1" />
    <path
       d="M 11,12.5 8.92263,4.60598 C 8.69579,3.744 9.25886,2.87352 10.1381,2.72699 v 0 c 0.7716,-0.12861 1.5142,0.35174 1.7133,1.10827 L 14,12"
       stroke="currentColor"
       stroke-linecap="round"
       stroke-linejoin="round"
       id="path6"
       style="stroke:#eeeeee;stroke-opacity:1" />
    <path
       d="m 17,12.5 1,-5 0.2475,-1.48485 C 18.3869,5.17836 17.8216,4.38694 16.9848,4.24747 v 0 C 16.16,4.11 15.3767,4.65763 15.2226,5.47955 L 14,12"
       stroke="currentColor"
       stroke-linecap="round"
       stroke-linejoin="round"
       id="path8"
       style="stroke:#eeeeee;stroke-opacity:1" />
  </g>
</svg>
